<svg id="Layer_1" data-name="Layer 1" xmlns="http://www.w3.org/2000/svg" viewBox="0 0 433.65 522.34"><defs><style>.cls-1{fill:#8c9766;fill-opacity:0.39;}.cls-2{fill:none;stroke:#8c9766;}</style></defs><title>bgtips</title><path class="cls-1" d="M430.37,431.68a140.72,140.72,0,1,1,0-281.44V431.68Z" transform="translate(3.27 -150.24)"/><path class="cls-2" d="M113.45,672.48c5.26-29.41,34.69-72,125-72,89.42,0,130-33.5,146-76,11.67-31,12-57,41-56" transform="translate(3.27 -150.24)"/><path class="cls-2" d="M90,670.89c5.67-33.67,42.2-100,139-90s137.67-51.17,146-83c5.63-21.5,19.8-61.7,51-60.5" transform="translate(3.27 -150.24)"/><path class="cls-2" d="M139.61,671.59c4.84-27.39,50.34-55,100-55,83,0,133.14-32.33,142.5-42,30-31,17.5-96,44.5-93" transform="translate(3.27 -150.24)"/><path class="cls-1" d="M170.23,672.36A173.49,173.49,0,0,0,157,606a173.53,173.53,0,0,0-37.61-56.29,173.53,173.53,0,0,0-56.29-37.61,173.47,173.47,0,0,0-66.39-13.2v173.5Z" transform="translate(3.27 -150.24)"/></svg>