<?xml version="1.0" encoding="utf-8"?>
<!-- Generator: Adobe Illustrator 23.1.0, SVG Export Plug-In . SVG Version: 6.00 Build 0)  -->
<svg version="1.1" id="Layer_1" xmlns="http://www.w3.org/2000/svg" xmlns:xlink="http://www.w3.org/1999/xlink" x="0px" y="0px"
	 viewBox="0 0 102.5 102.5" style="enable-background:new 0 0 102.5 102.5;" xml:space="preserve">
<style type="text/css">
	.st0{fill:#3D793D;}
</style>
<title>communitymarket</title>
<path class="st0" d="M95.6,76.9L95.6,76.9c0.1-10.6-5.6-20.4-14.8-25.6l0,0c9.3-5.1,15-15,14.8-25.6l0,0c-9.1-5.4-20.5-5.4-29.6,0
	l0,0C66.3,15,60.5,5.1,51.2,0l0,0C42,5.2,36.4,15,36.4,25.6l0,0c-9.1-5.5-20.5-5.5-29.6,0l0,0C6.8,36.2,12.4,46,21.6,51.2l0,0
	c-9.3,5.1-15,15-14.8,25.6l0,0c9.1,5.3,20.4,5.3,29.6,0l0,0c-0.2,10.6,5.5,20.5,14.8,25.6l0,0c9.2-5.2,14.9-15,14.8-25.6l0,0
	C75.1,82.4,86.5,82.4,95.6,76.9z M51.2,69.9c-10.3,0-18.6-8.3-18.6-18.6c0-10.3,8.3-18.6,18.6-18.6c10.3,0,18.6,8.3,18.6,18.6
	C69.9,61.5,61.5,69.9,51.2,69.9C51.3,69.9,51.2,69.9,51.2,69.9L51.2,69.9z"/>
</svg>
