<svg id="Layer_1" data-name="Layer 1" xmlns="http://www.w3.org/2000/svg" viewBox="0 0 108.41 108.41"><defs><style>.cls-1{fill:#3d793d;}</style></defs><title>memasokkebutuhan</title><path class="cls-1" d="M62.4,85.54l-.06.06-.1-.11L36.78,78.67l7.73,28.86a55.26,55.26,0,0,0,9.69.88,54.05,54.05,0,0,0,37.45-15Z"/><path class="cls-1" d="M12.17,20A54.19,54.19,0,0,0,1.9,68.43L42.27,28.06Z"/><path class="cls-1" d="M95.13,89.72a54.15,54.15,0,0,0,11.68-48.59L66,81.92Z"/><path class="cls-1" d="M31.83,77.35h0l0,0L25,51.65,3.42,73.18a54.35,54.35,0,0,0,36.2,33.23Z"/><path class="cls-1" d="M76.14,32.55h0l0,.07,6.94,25.93,22.26-22.25A54.29,54.29,0,0,0,67.89,1.75Z"/><path class="cls-1" d="M71.2,31.22,63,.73A54.7,54.7,0,0,0,54.2,0,54,54,0,0,0,15.48,16.29Z"/></svg>